<svg xmlns="http://www.w3.org/2000/svg" xmlns:xlink="http://www.w3.org/1999/xlink" preserveAspectRatio="xMidYMid" width="48" height="48" viewBox="0 0 48 48">
  <defs>
    <style>

      .cls-3 {
        fill: #3b5998;
      }

      .cls-4 {
        fill: #ffffff;
      }
    </style>
  </defs>
  <g id="fb-iconsvg">
    <rect id="rect-1" class="cls-3" width="48" height="48"/>
    <path d="M30.053,12.504 C30.053,12.504 26.912,12.499 26.912,12.499 C23.385,12.499 21.106,14.818 21.106,18.406 C21.106,18.406 21.106,21.129 21.106,21.129 C21.106,21.129 17.948,21.129 17.948,21.129 C17.675,21.129 17.455,21.349 17.455,21.619 C17.455,21.619 17.455,25.565 17.455,25.565 C17.455,25.836 17.676,26.055 17.948,26.055 C17.948,26.055 21.105,26.055 21.105,26.055 C21.105,26.055 21.105,36.011 21.105,36.011 C21.105,36.282 21.326,36.501 21.599,36.501 C21.599,36.501 25.718,36.501 25.718,36.501 C25.991,36.501 26.212,36.282 26.212,36.011 C26.212,36.011 26.212,26.055 26.212,26.055 C26.212,26.055 29.903,26.055 29.903,26.055 C30.176,26.055 30.397,25.836 30.397,25.565 C30.397,25.565 30.398,21.619 30.398,21.619 C30.398,21.489 30.346,21.365 30.254,21.273 C30.161,21.181 30.035,21.129 29.904,21.129 C29.904,21.129 26.212,21.129 26.212,21.129 C26.212,21.129 26.212,18.821 26.212,18.821 C26.212,17.711 26.479,17.148 27.937,17.148 C27.937,17.148 30.052,17.147 30.052,17.147 C30.325,17.147 30.546,16.928 30.546,16.658 C30.546,16.658 30.546,12.993 30.546,12.993 C30.546,12.724 30.325,12.505 30.053,12.504 Z" id="path-1" class="cls-4" fill-rule="evenodd"/>
  </g>
</svg>
