<svg xmlns="http://www.w3.org/2000/svg" xmlns:xlink="http://www.w3.org/1999/xlink" preserveAspectRatio="xMidYMid" width="162" height="47" viewBox="0 0 162 47">
  <defs>
    <style>

      .cls-2 {
        fill: #999999;
      }
    </style>
  </defs>
  <path d="M161.125,20.506 C160.325,21.442 159.279,21.962 158.086,22.208 C156.275,22.582 154.501,22.403 152.746,21.857 C151.796,21.561 150.834,21.299 149.865,21.073 C148.873,20.842 147.863,20.840 146.871,21.092 C146.178,21.268 145.539,21.580 144.948,21.982 C144.879,22.029 144.813,22.083 144.696,22.107 C144.740,22.016 144.779,21.921 144.831,21.834 C145.096,21.389 145.463,21.034 145.901,20.762 C146.319,20.504 146.760,20.284 147.192,20.049 C147.193,20.048 147.194,20.048 147.195,20.047 C147.317,19.981 147.448,19.931 147.581,19.889 C147.581,19.889 147.513,19.907 147.513,19.907 C146.986,19.434 146.369,19.141 145.836,18.708 C145.680,18.837 145.529,18.948 145.395,19.076 C144.663,19.771 143.937,20.473 143.205,21.168 C143.016,21.348 142.812,21.514 142.615,21.687 C142.597,21.677 142.578,21.668 142.560,21.659 C142.605,21.503 142.647,21.346 142.695,21.191 C143.054,20.017 143.407,18.842 143.778,17.671 C143.857,17.420 143.826,17.258 143.600,17.098 C143.068,16.722 142.553,16.321 142.032,15.928 C141.960,15.875 141.893,15.815 141.844,15.705 C142.104,15.683 142.364,15.647 142.625,15.642 C143.205,15.629 143.785,15.633 144.365,15.629 C144.661,15.627 144.670,15.629 144.774,15.348 C145.023,14.671 145.262,13.990 145.507,13.311 C145.552,13.188 145.605,13.069 145.653,12.949 C145.679,12.945 145.704,12.942 145.730,12.938 C145.918,13.467 146.107,13.995 146.294,14.523 C146.394,14.806 146.485,15.092 146.587,15.374 C146.679,15.628 146.683,15.624 146.954,15.626 C147.743,15.631 148.532,15.638 149.321,15.646 C149.394,15.646 149.466,15.661 149.615,15.679 C149.358,15.890 149.160,16.070 148.945,16.227 C148.457,16.585 147.964,16.935 147.467,17.279 C147.330,17.374 147.272,17.472 147.328,17.632 C147.389,17.809 147.445,17.988 147.501,18.167 C147.661,18.681 147.820,19.197 147.988,19.741 C147.992,19.753 147.996,19.766 148.000,19.779 C148.133,19.758 148.280,19.739 148.424,19.710 C149.285,19.540 150.156,19.437 151.028,19.569 C151.674,19.667 152.309,19.833 152.947,19.981 C153.806,20.180 154.658,20.413 155.521,20.593 C156.752,20.849 157.988,20.876 159.222,20.578 C159.804,20.437 160.321,20.165 160.819,19.854 C161.124,19.663 161.416,19.453 161.714,19.251 C161.788,19.201 161.864,19.151 161.992,19.066 C161.765,19.633 161.480,20.090 161.125,20.506 ZM140.178,13.449 C140.074,14.189 139.932,14.925 139.856,15.668 C139.690,17.282 139.739,18.903 139.750,20.521 C139.760,21.981 139.778,23.441 139.792,24.901 C139.793,24.929 139.792,24.957 139.792,24.985 C139.790,25.452 139.727,25.534 139.289,25.715 C139.123,25.783 139.021,25.761 138.898,25.621 C138.149,24.763 137.417,23.886 136.624,23.068 C135.049,21.443 133.442,19.847 131.839,18.250 C130.970,17.384 130.081,16.539 129.200,15.685 C129.140,15.627 129.077,15.570 128.975,15.476 C128.950,15.747 128.922,15.968 128.910,16.190 C128.817,17.948 128.799,19.708 128.853,21.467 C128.874,22.158 128.964,22.846 129.020,23.536 C129.038,23.759 129.143,23.920 129.337,24.036 C129.646,24.219 129.985,24.309 130.337,24.333 C130.564,24.348 130.689,24.440 130.733,24.654 C130.748,24.727 130.773,24.798 130.788,24.871 C130.868,25.277 130.826,25.327 130.422,25.367 C129.511,25.458 128.601,25.416 127.689,25.379 C127.244,25.362 126.797,25.394 126.351,25.408 C126.061,25.417 126.061,25.419 125.965,25.157 C125.737,24.540 125.739,24.545 126.372,24.331 C126.586,24.259 126.795,24.165 126.997,24.063 C127.187,23.967 127.267,23.805 127.290,23.586 C127.513,21.460 127.533,19.327 127.529,17.193 C127.528,16.585 127.574,15.976 127.554,15.369 C127.537,14.876 127.456,14.385 127.398,13.893 C127.365,13.610 127.209,13.391 126.948,13.288 C126.607,13.152 126.252,13.047 125.897,12.953 C125.626,12.881 125.587,12.869 125.543,12.596 C125.505,12.363 125.503,12.131 125.602,11.898 C125.635,11.889 125.670,11.871 125.706,11.871 C126.523,11.885 127.339,11.901 128.156,11.917 C128.223,11.919 128.289,11.927 128.355,11.932 C128.769,11.961 129.055,12.136 129.287,12.505 C129.846,13.392 130.577,14.147 131.334,14.873 C132.852,16.329 134.372,17.784 135.897,19.234 C136.615,19.916 137.345,20.586 138.072,21.260 C138.161,21.342 138.260,21.414 138.388,21.518 C138.399,21.417 138.413,21.349 138.413,21.281 C138.418,20.345 138.417,19.409 138.426,18.473 C138.434,17.640 138.469,16.808 138.462,15.976 C138.456,15.170 138.378,14.369 138.177,13.585 C138.078,13.202 138.065,13.201 137.659,13.163 C137.376,13.136 137.095,13.092 136.814,13.045 C136.633,13.015 136.539,12.900 136.528,12.714 C136.512,12.465 136.487,12.217 136.463,11.937 C136.605,11.929 136.706,11.917 136.806,11.917 C138.232,11.913 139.658,11.910 141.084,11.908 C141.546,11.907 141.587,11.937 141.699,12.386 C141.728,12.501 141.735,12.621 141.750,12.725 C141.302,12.870 140.881,13.010 140.457,13.140 C140.294,13.190 140.202,13.275 140.178,13.449 ZM123.764,36.498 C123.764,35.737 123.764,34.986 123.764,34.250 C123.520,34.162 121.544,34.147 121.213,34.222 C121.207,34.314 121.196,34.414 121.196,34.514 C121.194,35.075 121.196,35.636 121.194,36.198 C121.192,36.475 121.166,36.508 120.890,36.519 C120.634,36.530 120.377,36.529 120.121,36.519 C119.844,36.508 119.816,36.475 119.816,36.199 C119.814,35.320 119.815,34.440 119.815,33.561 C119.815,32.700 119.814,31.839 119.816,30.978 C119.816,30.702 119.825,30.695 120.103,30.692 C120.369,30.689 120.635,30.689 120.901,30.692 C121.185,30.694 121.192,30.700 121.194,30.973 C121.196,31.469 121.194,31.965 121.194,32.461 C121.194,32.526 121.193,32.592 121.194,32.657 C121.199,32.935 121.208,32.946 121.481,32.950 C121.709,32.954 121.937,32.951 122.165,32.951 C122.583,32.951 123.001,32.953 123.419,32.950 C123.684,32.948 123.695,32.937 123.698,32.682 C123.705,32.205 123.703,31.727 123.714,31.251 C123.718,31.076 123.748,30.902 123.767,30.711 C124.239,30.711 124.681,30.711 125.122,30.711 C125.201,30.900 125.228,36.106 125.148,36.498 C124.704,36.498 124.255,36.498 123.764,36.498 ZM124.763,25.322 C124.734,25.378 124.606,25.409 124.522,25.410 C123.581,25.421 122.640,25.424 121.700,25.427 C121.187,25.429 120.675,25.428 120.131,25.428 C120.058,25.196 119.989,25.003 119.936,24.805 C119.895,24.649 119.944,24.539 120.124,24.492 C120.316,24.442 120.505,24.374 120.688,24.298 C120.964,24.183 120.961,24.163 120.925,23.875 C120.842,23.227 120.612,22.625 120.350,22.032 C120.164,21.613 119.976,21.195 119.780,20.759 C119.265,20.759 118.753,20.753 118.241,20.760 C117.330,20.773 116.418,20.799 115.506,20.808 C115.332,20.810 115.232,20.864 115.146,21.012 C114.656,21.850 114.373,22.757 114.201,23.702 C114.186,23.788 114.226,23.910 114.286,23.976 C114.371,24.071 114.490,24.145 114.607,24.199 C114.752,24.267 114.910,24.307 115.063,24.357 C115.393,24.465 115.445,24.562 115.348,24.894 C115.341,24.921 115.331,24.948 115.321,24.974 C115.179,25.364 115.179,25.364 114.753,25.364 C113.745,25.362 112.738,25.364 111.731,25.357 C111.332,25.354 111.328,25.340 111.245,24.962 C111.202,24.767 111.175,24.575 111.272,24.361 C111.804,24.298 112.103,23.903 112.390,23.506 C112.895,22.809 113.261,22.036 113.588,21.247 C114.620,18.753 115.640,16.253 116.667,13.757 C116.896,13.202 117.140,12.654 117.368,12.099 C117.437,11.930 117.535,11.809 117.716,11.761 C117.898,11.713 118.079,11.650 118.265,11.621 C118.580,11.574 118.698,11.668 118.798,11.987 C118.964,12.514 119.118,13.045 119.309,13.562 C120.028,15.513 120.740,17.467 121.494,19.405 C121.983,20.662 122.523,21.900 123.081,23.129 C123.248,23.495 123.548,23.806 123.806,24.128 C123.867,24.204 124.002,24.231 124.109,24.260 C124.318,24.319 124.536,24.352 124.743,24.416 C124.965,24.486 125.004,24.540 124.958,24.770 C124.920,24.960 124.850,25.149 124.763,25.322 ZM117.558,14.952 C116.925,16.472 116.312,17.945 115.697,19.421 C116.370,19.540 118.869,19.531 119.252,19.390 C118.755,17.899 118.289,16.397 117.558,14.952 ZM113.114,31.596 C113.214,31.364 113.319,31.133 113.411,30.898 C113.466,30.760 113.542,30.686 113.704,30.689 C114.132,30.697 114.560,30.694 114.987,30.691 C115.119,30.689 115.197,30.735 115.245,30.860 C115.916,32.641 116.591,34.420 117.263,36.200 C117.295,36.284 117.311,36.375 117.343,36.493 C117.233,36.506 117.152,36.522 117.071,36.522 C116.757,36.525 116.443,36.514 116.130,36.527 C115.932,36.536 115.838,36.457 115.784,36.277 C115.716,36.053 115.625,35.836 115.541,35.617 C115.442,35.362 115.440,35.358 115.174,35.357 C114.547,35.355 113.919,35.363 113.292,35.353 C113.099,35.350 112.991,35.428 112.924,35.593 C112.830,35.828 112.722,36.058 112.639,36.296 C112.597,36.418 112.541,36.502 112.409,36.503 C111.974,36.507 111.540,36.505 111.036,36.505 C111.142,36.222 111.220,35.984 111.319,35.755 C111.915,34.368 112.515,32.983 113.114,31.596 ZM115.058,34.282 C114.783,33.620 114.533,33.016 114.282,32.413 C114.256,32.415 114.230,32.417 114.203,32.418 C113.965,33.026 113.681,33.616 113.498,34.280 C114.030,34.298 114.515,34.300 115.058,34.282 ZM108.800,13.154 C108.603,13.182 108.546,13.291 108.528,13.479 C108.301,15.832 108.344,18.191 108.374,20.549 C108.387,21.559 108.444,22.568 108.485,23.577 C108.507,24.098 108.576,24.160 109.114,24.221 C109.396,24.253 109.679,24.289 109.958,24.344 C110.183,24.389 110.238,24.473 110.236,24.699 C110.236,24.782 110.219,24.867 110.199,24.948 C110.095,25.367 110.088,25.368 109.646,25.372 C108.848,25.381 108.050,25.403 107.253,25.402 C106.350,25.402 105.448,25.379 104.545,25.374 C104.367,25.373 104.258,25.327 104.224,25.140 C104.181,24.903 104.122,24.669 104.056,24.374 C104.246,24.357 104.384,24.342 104.523,24.334 C104.845,24.315 105.168,24.302 105.489,24.280 C105.573,24.274 105.656,24.248 105.738,24.224 C105.916,24.169 106.020,24.072 106.027,23.863 C106.041,23.434 106.091,23.006 106.109,22.576 C106.142,21.772 106.173,20.968 106.187,20.164 C106.207,18.929 106.237,17.693 106.215,16.459 C106.198,15.469 106.113,14.479 106.050,13.490 C106.033,13.211 105.968,13.151 105.687,13.120 C105.432,13.091 105.174,13.089 104.921,13.054 C104.745,13.030 104.569,12.984 104.402,12.924 C104.284,12.882 104.241,12.781 104.272,12.648 C104.326,12.420 104.438,12.228 104.618,12.081 C104.674,12.035 104.769,12.017 104.847,12.015 C106.072,11.985 107.296,11.951 108.521,11.937 C109.071,11.930 109.622,11.963 110.172,11.980 C110.362,11.986 110.430,12.118 110.467,12.272 C110.514,12.463 110.553,12.655 110.605,12.884 C110.484,12.902 110.359,12.921 110.234,12.940 C109.756,13.012 109.278,13.085 108.800,13.154 ZM106.719,30.819 C107.233,30.926 107.721,31.114 108.144,31.435 C108.506,31.710 108.778,32.058 108.924,32.485 C109.144,33.130 109.169,33.786 108.997,34.447 C108.796,35.219 108.292,35.740 107.574,36.066 C106.875,36.383 106.131,36.527 105.363,36.538 C104.831,36.546 104.299,36.541 103.768,36.534 C103.474,36.530 103.449,36.513 103.439,36.239 C103.407,35.407 103.387,34.575 103.363,33.743 C103.373,33.743 103.384,33.743 103.394,33.743 C103.394,33.060 103.388,32.376 103.397,31.693 C103.400,31.432 103.433,31.171 103.455,30.910 C103.466,30.771 103.530,30.699 103.686,30.684 C104.704,30.588 105.718,30.612 106.719,30.819 ZM104.879,35.001 C104.880,35.242 104.916,35.279 105.156,35.291 C105.628,35.315 106.086,35.246 106.513,35.045 C107.206,34.718 107.542,34.018 107.477,33.460 C107.395,32.753 106.980,32.289 106.314,32.033 C105.945,31.892 105.561,31.854 105.168,31.872 C104.904,31.885 104.880,31.905 104.878,32.171 C104.875,32.638 104.877,33.105 104.878,33.572 C104.878,34.048 104.875,34.525 104.879,35.001 ZM100.221,23.938 C99.348,24.579 98.407,25.062 97.319,25.236 C96.473,25.372 95.623,25.440 94.766,25.428 C94.462,25.424 94.157,25.428 93.730,25.428 C92.400,25.408 90.946,25.384 89.493,25.366 C89.332,25.364 89.238,25.319 89.228,25.151 C89.216,24.966 89.192,24.780 89.192,24.594 C89.192,24.450 89.271,24.365 89.427,24.324 C89.647,24.267 89.857,24.176 90.071,24.100 C90.202,24.053 90.256,23.969 90.262,23.826 C90.297,23.003 90.332,22.181 90.384,21.360 C90.497,19.556 90.518,17.750 90.479,15.944 C90.460,15.104 90.369,14.266 90.317,13.426 C90.309,13.292 90.246,13.208 90.125,13.183 C89.940,13.145 89.752,13.111 89.565,13.105 C89.396,13.100 89.292,13.054 89.269,12.878 C89.242,12.666 89.188,12.455 89.183,12.243 C89.178,12.033 89.241,11.986 89.461,11.977 C90.467,11.935 91.473,11.890 92.479,11.862 C93.466,11.834 94.455,11.784 95.442,11.818 C97.175,11.877 98.830,12.258 100.310,13.199 C101.979,14.259 102.918,15.789 103.288,17.695 C103.466,18.609 103.320,19.465 103.043,20.340 C102.552,21.895 101.502,22.995 100.221,23.938 ZM100.494,16.664 C100.187,15.455 99.497,14.528 98.428,13.887 C96.712,12.859 94.880,12.709 92.969,13.257 C92.821,13.300 92.788,13.383 92.783,13.522 C92.754,14.391 92.710,15.260 92.683,16.129 C92.650,17.158 92.631,18.187 92.602,19.336 C92.618,19.777 92.644,20.337 92.655,20.898 C92.674,21.816 92.779,22.725 92.891,23.635 C92.933,23.977 93.083,24.159 93.410,24.225 C93.466,24.236 93.520,24.259 93.576,24.266 C94.466,24.381 95.359,24.414 96.240,24.217 C98.406,23.731 99.840,22.442 100.496,20.347 C100.879,19.125 100.807,17.896 100.494,16.664 ZM86.300,13.156 C86.117,13.184 86.061,13.280 86.045,13.460 C85.914,14.953 85.857,16.448 85.869,17.946 C85.876,18.964 85.865,19.984 85.896,21.002 C85.926,21.974 86.003,22.944 86.050,23.915 C86.059,24.089 86.150,24.142 86.295,24.162 C86.577,24.201 86.860,24.235 87.141,24.278 C87.262,24.297 87.385,24.323 87.500,24.363 C87.775,24.460 87.828,24.554 87.749,24.834 C87.695,25.021 87.614,25.201 87.535,25.413 C87.358,25.413 87.180,25.413 87.002,25.412 C85.796,25.405 84.590,25.398 83.384,25.389 C82.928,25.385 82.472,25.373 82.016,25.373 C81.870,25.373 81.783,25.324 81.750,25.180 C81.692,24.928 81.628,24.677 81.553,24.367 C81.761,24.353 81.900,24.341 82.040,24.333 C82.381,24.315 82.724,24.313 83.062,24.277 C83.425,24.237 83.510,24.145 83.556,23.786 C83.593,23.499 83.626,23.209 83.634,22.920 C83.665,21.864 83.698,20.807 83.707,19.750 C83.719,18.317 83.708,16.885 83.712,15.453 C83.713,15.182 83.751,14.911 83.747,14.641 C83.743,14.323 83.729,14.004 83.689,13.690 C83.633,13.246 83.424,13.072 82.968,13.057 C82.769,13.050 82.569,13.059 82.369,13.057 C82.284,13.056 82.196,13.057 82.114,13.038 C81.845,12.976 81.758,12.820 81.835,12.558 C81.955,12.146 82.075,12.053 82.573,12.036 C83.351,12.009 84.130,11.992 84.909,11.974 C85.773,11.954 86.637,11.937 87.501,11.920 C87.784,11.914 87.848,11.944 87.949,12.209 C88.028,12.416 88.076,12.635 88.148,12.887 C87.971,12.907 87.822,12.920 87.676,12.942 C87.217,13.012 86.759,13.088 86.300,13.156 ZM99.998,36.485 C99.714,36.497 99.430,36.509 99.145,36.523 C98.816,36.539 98.762,36.492 98.761,36.170 C98.760,35.327 98.761,34.485 98.761,33.642 C98.761,32.781 98.760,31.919 98.762,31.058 C98.762,30.766 98.774,30.751 99.064,30.755 C99.377,30.759 99.690,30.779 100.003,30.789 C100.145,30.793 100.204,30.863 100.208,31.000 C100.213,31.159 100.243,31.317 100.244,31.475 C100.250,33.001 100.253,34.527 100.257,36.053 C100.257,36.109 100.258,36.166 100.256,36.222 C100.248,36.465 100.238,36.475 99.998,36.485 ZM130.914,36.591 C130.034,36.642 128.695,35.992 128.162,34.634 C127.556,33.088 128.209,31.475 129.886,30.881 C130.880,30.529 131.865,30.542 132.814,31.022 C133.657,31.448 134.129,32.138 134.199,33.072 C134.225,33.415 134.216,33.761 134.203,34.105 C134.174,34.897 133.755,35.476 133.137,35.938 C132.504,36.410 131.775,36.579 130.914,36.591 ZM132.751,33.656 C132.760,33.159 132.652,32.689 132.313,32.298 C131.779,31.681 130.558,31.792 130.049,32.265 C129.634,32.649 129.523,33.135 129.524,33.665 C129.524,33.759 129.518,33.853 129.524,33.946 C129.559,34.439 129.776,34.832 130.230,35.055 C130.849,35.359 131.474,35.346 132.087,35.023 C132.370,34.875 132.566,34.649 132.645,34.346 C132.704,34.121 132.747,33.887 132.751,33.656 ZM77.377,18.046 C77.085,18.253 76.779,18.441 76.457,18.653 C76.483,18.730 76.504,18.809 76.536,18.883 C78.046,22.411 79.944,25.717 82.334,28.743 C83.615,30.365 85.018,31.878 86.549,33.272 C88.870,35.384 91.420,37.187 94.188,38.692 C97.872,40.695 101.777,42.134 105.861,43.099 C107.384,43.458 108.920,43.768 110.463,44.031 C111.780,44.256 113.112,44.417 114.444,44.540 C115.520,44.640 116.606,44.642 117.688,44.688 C117.887,44.697 118.087,44.727 118.285,44.719 C119.652,44.667 121.020,44.642 122.384,44.545 C124.913,44.365 127.379,43.838 129.810,43.139 C131.672,42.604 133.514,42.015 135.291,41.245 C137.125,40.450 138.862,39.493 140.427,38.249 C143.016,36.192 144.760,33.589 145.659,30.434 C145.960,29.378 146.165,28.304 146.275,27.213 C146.350,26.470 146.213,26.166 145.275,26.041 C144.619,25.953 143.993,26.132 143.380,26.348 C143.052,26.464 142.729,26.592 142.376,26.725 C142.393,26.676 142.395,26.648 142.409,26.635 C143.387,25.713 144.493,25.011 145.830,24.707 C146.640,24.522 147.449,24.522 148.257,24.720 C148.538,24.789 148.565,24.805 148.571,25.098 C148.581,25.557 148.582,26.016 148.566,26.474 C148.551,26.913 148.506,27.351 148.480,27.790 C148.399,29.162 148.107,30.494 147.694,31.802 C147.063,33.802 146.066,35.607 144.696,37.211 C143.724,38.350 142.608,39.335 141.389,40.209 C139.659,41.448 137.797,42.468 135.827,43.273 C134.637,43.758 133.391,44.119 132.155,44.486 C129.198,45.365 126.195,46.063 123.152,46.588 C121.887,46.807 120.613,46.942 119.327,46.948 C119.244,46.948 119.161,46.973 119.078,46.986 C117.747,46.986 116.416,46.986 115.085,46.986 C114.765,46.955 114.445,46.927 114.127,46.890 C113.164,46.780 112.200,46.685 111.242,46.551 C110.020,46.379 108.798,46.206 107.586,45.978 C103.420,45.194 99.428,43.892 95.642,41.997 C92.800,40.574 90.150,38.862 87.725,36.823 C86.721,35.979 85.742,35.102 84.801,34.191 C83.275,32.713 81.882,31.114 80.576,29.443 C78.314,26.550 76.357,23.465 74.636,20.235 C74.427,19.842 74.155,19.641 73.729,19.642 C73.197,19.644 72.666,19.673 72.134,19.692 C71.946,19.699 71.972,19.835 71.975,19.958 C71.984,20.322 72.001,20.687 72.000,21.051 C71.999,21.416 71.956,21.782 71.976,22.144 C72.006,22.675 72.076,23.204 72.130,23.733 C72.152,23.943 72.257,24.070 72.478,24.112 C72.840,24.182 73.200,24.267 73.560,24.345 C73.651,24.364 73.744,24.378 73.864,24.400 C73.787,24.696 73.725,24.976 73.633,25.246 C73.614,25.301 73.479,25.344 73.396,25.348 C73.035,25.365 72.674,25.369 72.313,25.371 C71.457,25.373 70.601,25.368 69.746,25.373 C69.471,25.375 69.195,25.394 68.921,25.416 C68.752,25.430 68.652,25.354 68.585,25.214 C68.464,24.960 68.439,24.696 68.482,24.399 C68.678,24.358 68.872,24.324 69.062,24.277 C69.611,24.139 69.730,24.017 69.773,23.458 C69.826,22.768 69.874,22.076 69.884,21.385 C69.900,20.290 69.890,19.194 69.879,18.099 C69.869,17.060 69.843,16.021 69.823,14.983 C69.814,14.534 69.791,14.085 69.794,13.636 C69.795,13.447 69.720,13.329 69.551,13.271 C69.274,13.176 68.997,13.073 68.711,13.012 C68.510,12.969 68.408,12.880 68.392,12.685 C68.378,12.527 68.349,12.369 68.354,12.211 C68.361,12.003 68.441,11.934 68.655,11.917 C68.873,11.899 69.090,11.882 69.309,11.875 C70.163,11.846 71.019,11.842 71.872,11.790 C72.815,11.732 73.753,11.775 74.688,11.869 C75.610,11.962 76.511,12.149 77.311,12.649 C78.194,13.200 78.634,14.011 78.755,15.017 C78.800,15.393 78.795,15.762 78.722,16.133 C78.557,16.964 78.055,17.567 77.377,18.046 ZM74.431,12.921 C73.898,12.777 73.358,12.801 72.819,12.868 C72.661,12.887 72.506,12.942 72.356,12.995 C72.222,13.043 72.142,13.137 72.129,13.289 C72.079,13.884 71.991,14.479 71.976,15.075 C71.951,16.123 71.969,17.171 71.970,18.219 C71.970,18.311 71.979,18.403 71.984,18.509 C73.023,18.623 74.058,18.547 74.863,18.146 C75.650,17.755 76.149,17.135 76.282,16.265 C76.331,15.944 76.356,15.611 76.332,15.288 C76.248,14.192 75.592,13.236 74.431,12.921 ZM66.681,25.071 C66.588,25.266 66.468,25.360 66.246,25.353 C65.971,25.345 65.695,25.361 65.419,25.364 C63.490,25.381 61.560,25.395 59.631,25.415 C58.729,25.425 57.826,25.438 56.924,25.469 C56.672,25.477 56.531,25.367 56.429,25.171 C56.327,24.976 56.365,24.791 56.538,24.607 C56.787,24.340 57.117,24.224 57.495,24.141 C57.515,24.002 57.548,23.857 57.558,23.711 C57.606,22.955 57.674,22.199 57.687,21.442 C57.716,19.777 57.737,18.110 57.720,16.445 C57.710,15.445 57.618,14.446 57.572,13.447 C57.564,13.296 57.498,13.227 57.362,13.195 C57.187,13.155 57.012,13.111 56.837,13.067 C56.718,13.037 56.596,13.010 56.481,12.969 C56.185,12.866 56.162,12.824 56.206,12.518 C56.292,11.910 56.292,11.911 56.921,11.928 C57.472,11.943 58.023,11.975 58.573,11.960 C59.864,11.926 61.154,11.847 62.445,11.827 C63.546,11.810 64.649,11.847 65.750,11.873 C65.916,11.877 66.083,11.944 66.243,12.000 C66.390,12.051 66.459,12.152 66.439,12.326 C66.384,12.828 66.343,13.331 66.303,13.835 C66.266,14.291 66.239,14.749 66.207,15.206 C66.203,15.261 66.194,15.315 66.185,15.387 C65.850,15.475 65.544,15.407 65.263,15.231 C65.205,15.195 65.172,15.097 65.156,15.021 C65.092,14.720 65.049,14.414 64.977,14.114 C64.940,13.962 64.865,13.817 64.796,13.673 C64.636,13.341 64.380,13.187 63.991,13.156 C63.166,13.091 62.343,13.030 61.515,13.069 C61.060,13.090 60.607,13.137 60.153,13.177 C60.069,13.185 59.987,13.214 59.881,13.238 C59.742,14.790 59.849,16.339 59.814,17.916 C60.221,17.939 60.596,17.981 60.972,17.979 C61.741,17.975 62.511,17.961 63.279,17.924 C63.569,17.910 63.856,17.820 64.145,17.769 C64.363,17.731 64.467,17.588 64.518,17.393 C64.558,17.239 64.587,17.082 64.637,16.931 C64.737,16.632 64.889,16.528 65.206,16.523 C65.374,16.521 65.543,16.523 65.755,16.523 C65.628,17.997 65.545,19.430 65.758,20.883 C65.489,20.909 65.265,20.941 65.040,20.949 C64.888,20.954 64.765,20.885 64.713,20.728 C64.614,20.427 64.489,20.130 64.424,19.821 C64.379,19.608 64.286,19.471 64.081,19.429 C63.720,19.356 63.356,19.256 62.991,19.249 C62.175,19.233 61.357,19.268 60.541,19.281 C60.371,19.283 60.202,19.281 59.985,19.281 C59.928,19.649 59.844,20.023 59.816,20.401 C59.775,20.970 59.744,21.542 59.761,22.111 C59.777,22.632 59.866,23.151 59.916,23.672 C59.931,23.830 60.016,23.900 60.160,23.937 C61.206,24.205 62.262,24.345 63.346,24.242 C63.957,24.184 64.551,24.075 65.105,23.809 C65.853,23.450 66.309,22.884 66.363,22.042 C66.364,22.015 66.378,21.990 66.402,21.913 C66.608,21.913 66.806,21.906 67.004,21.915 C67.225,21.925 67.274,21.960 67.272,22.188 C67.268,22.608 67.269,23.032 67.208,23.446 C67.124,24.012 66.927,24.550 66.681,25.071 ZM60.556,5.766 C60.412,6.231 60.416,6.232 59.935,6.159 C59.843,6.145 59.749,6.137 59.618,6.122 C59.644,6.011 59.665,5.916 59.690,5.822 C59.753,5.587 59.833,5.356 59.879,5.118 C59.998,4.494 59.703,4.021 59.079,3.860 C58.479,3.704 57.872,3.750 57.271,3.874 C55.849,4.167 54.748,4.965 53.816,6.022 C52.908,7.053 52.276,8.247 51.745,9.494 C51.057,11.110 50.445,12.754 50.076,14.470 C49.683,16.299 49.316,18.135 48.974,19.974 C48.718,21.353 48.510,22.741 48.301,24.128 C48.226,24.626 48.203,25.133 48.176,25.636 C48.166,25.820 48.199,26.011 48.238,26.192 C48.311,26.526 48.566,26.720 48.935,26.751 C49.392,26.789 49.822,26.670 50.243,26.519 C50.509,26.423 50.770,26.312 51.075,26.192 C51.195,26.409 51.310,26.618 51.439,26.853 C51.289,26.926 51.168,26.997 51.039,27.046 C49.852,27.499 48.661,27.943 47.476,28.400 C46.786,28.666 46.105,28.952 45.419,29.229 C45.342,29.260 45.263,29.288 45.142,29.333 C45.142,29.213 45.135,29.124 45.144,29.036 C45.254,27.967 45.346,26.895 45.487,25.829 C45.638,24.679 45.821,23.533 46.018,22.391 C46.527,19.449 47.199,16.540 47.853,13.628 C47.892,13.457 47.924,13.284 47.941,13.101 C43.585,18.344 39.349,23.679 34.967,28.925 C34.775,28.804 34.603,28.696 34.422,28.582 C34.457,28.498 34.477,28.437 34.506,28.381 C34.889,27.662 35.025,26.883 35.092,26.085 C35.241,24.327 34.923,22.617 34.547,20.915 C34.244,19.545 33.901,18.183 33.581,16.816 C33.504,16.488 33.445,16.156 33.376,15.827 C33.365,15.774 33.348,15.723 33.321,15.627 C33.232,15.717 33.164,15.776 33.108,15.844 C32.105,17.043 31.116,18.255 30.098,19.441 C29.405,20.249 28.683,21.033 27.953,21.808 C26.736,23.102 25.414,24.283 23.971,25.329 C21.618,27.036 19.021,28.208 16.150,28.770 C14.586,29.077 13.006,29.209 11.415,29.116 C9.044,28.977 6.838,28.328 4.894,26.935 C3.494,25.932 2.416,24.653 1.593,23.158 C0.857,21.822 0.386,20.394 0.078,18.910 C0.054,18.792 0.031,18.674 0.008,18.555 C0.008,17.956 0.008,17.357 0.008,16.758 C0.043,16.480 0.078,16.203 0.111,15.926 C0.311,14.264 0.840,12.718 1.784,11.319 C2.913,9.644 4.463,8.478 6.329,7.703 C7.617,7.169 8.964,6.856 10.355,6.747 C11.074,6.691 11.796,6.649 12.517,6.655 C14.843,6.673 17.022,7.245 19.046,8.386 C20.446,9.176 21.700,10.163 22.970,11.132 C23.901,11.843 24.865,12.511 25.792,13.227 C26.189,13.534 26.608,13.535 27.057,13.470 C27.572,13.394 28.039,13.189 28.489,12.940 C28.819,12.758 29.154,12.583 29.492,12.402 C29.689,12.607 29.861,12.788 29.905,13.070 C29.825,13.120 29.749,13.173 29.667,13.217 C28.085,14.074 26.503,14.931 24.919,15.784 C24.611,15.950 24.667,15.936 24.430,15.742 C22.026,13.777 19.488,12.000 16.748,10.514 C15.205,9.677 13.617,8.934 11.904,8.496 C11.301,8.342 10.678,8.237 10.057,8.178 C8.961,8.075 7.926,8.358 6.932,8.789 C5.091,9.587 3.594,10.790 2.543,12.493 C1.623,13.985 1.293,15.608 1.485,17.341 C1.738,19.625 2.838,21.460 4.556,22.963 C6.392,24.568 8.559,25.559 10.886,26.246 C11.934,26.555 13.005,26.756 14.088,26.910 C15.093,27.052 16.075,26.925 17.057,26.731 C19.422,26.262 21.619,25.388 23.650,24.106 C25.023,23.239 26.278,22.228 27.452,21.113 C29.153,19.497 30.663,17.716 32.106,15.879 C32.412,15.488 32.657,15.051 32.924,14.631 C33.017,14.485 33.032,14.328 33.000,14.148 C32.764,12.810 32.584,11.466 32.648,10.103 C32.756,7.779 33.234,5.540 34.254,3.432 C34.764,2.378 35.386,1.390 36.314,0.636 C36.618,0.390 36.984,0.219 37.321,0.014 C37.587,0.014 37.853,0.014 38.120,0.014 C38.940,0.269 39.231,0.918 39.381,1.667 C39.553,2.533 39.492,3.399 39.351,4.262 C38.999,6.424 38.102,8.375 36.952,10.225 C36.406,11.103 35.841,11.969 35.277,12.837 C35.188,12.973 35.166,13.094 35.206,13.255 C35.584,14.800 35.972,16.344 36.320,17.896 C36.655,19.393 36.958,20.897 37.252,22.402 C37.373,23.022 37.431,23.654 37.525,24.334 C37.838,23.976 38.123,23.654 38.402,23.328 C40.455,20.929 42.337,18.399 44.249,15.891 C45.756,13.915 47.280,11.952 48.840,10.016 C50.265,8.248 51.808,6.578 53.482,5.033 C54.564,4.035 55.663,3.049 56.937,2.286 C58.073,1.606 59.277,1.079 60.605,0.879 C61.082,0.807 61.563,0.762 62.065,0.816 C62.056,0.886 62.056,0.940 62.041,0.990 C61.547,2.582 61.050,4.173 60.556,5.766 ZM36.520,8.418 C37.068,7.181 37.530,5.914 37.685,4.561 C37.752,3.980 37.736,3.402 37.542,2.841 C37.372,2.350 37.065,2.159 36.541,2.208 C36.249,2.235 36.003,2.371 35.850,2.605 C35.655,2.901 35.474,3.213 35.345,3.541 C34.858,4.784 34.672,6.091 34.600,7.410 C34.543,8.447 34.548,9.487 34.705,10.519 C34.765,10.912 34.843,11.302 34.913,11.693 C34.930,11.693 34.948,11.693 34.966,11.693 C34.997,11.636 35.031,11.581 35.059,11.523 C35.548,10.489 36.057,9.463 36.520,8.418 ZM147.118,23.127 C146.709,23.188 146.307,23.317 145.912,23.446 C144.907,23.774 143.956,24.212 143.107,24.848 C143.085,24.865 143.057,24.873 142.965,24.916 C143.148,24.496 143.400,24.197 143.674,23.918 C144.487,23.092 145.498,22.594 146.580,22.205 C147.372,21.921 148.188,21.930 149.000,21.992 C150.277,22.090 151.467,22.490 152.571,23.131 C152.610,23.154 152.648,23.180 152.747,23.244 C152.652,23.244 152.624,23.247 152.597,23.244 C151.979,23.160 151.386,23.251 150.816,23.494 C150.616,23.580 150.408,23.651 150.216,23.751 C149.995,23.866 149.782,23.864 149.560,23.772 C149.254,23.644 148.947,23.520 148.641,23.392 C148.154,23.187 147.645,23.048 147.118,23.127 Z" id="path-1" class="cls-2" fill-rule="evenodd"/>
</svg>
