<svg xmlns="http://www.w3.org/2000/svg" xmlns:xlink="http://www.w3.org/1999/xlink" preserveAspectRatio="xMidYMid" width="48" height="48" viewBox="0 0 48 48">
  <defs>
    <style>

      .cls-3 {
        fill: #0077b5;
      }

      .cls-4 {
        fill: #ffffff;
      }
    </style>
  </defs>
  <g id="in-iconsvg">
    <rect id="rect-1" class="cls-3" width="48" height="48"/>
    <path d="M38.000,25.101 C38.000,25.101 38.000,34.000 38.000,34.000 C38.000,34.000 32.642,34.000 32.642,34.000 C32.642,34.000 32.642,25.697 32.642,25.697 C32.642,23.611 31.867,22.188 29.927,22.188 C28.446,22.188 27.565,23.147 27.178,24.075 C27.037,24.407 27.000,24.869 27.000,25.333 C27.000,25.333 27.000,34.000 27.000,34.000 C27.000,34.000 21.640,34.000 21.640,34.000 C21.640,34.000 21.712,19.938 21.640,18.481 C21.640,18.481 27.000,18.481 27.000,18.481 C27.000,18.481 27.000,20.681 27.000,20.681 C26.989,20.697 26.975,20.715 26.964,20.731 C26.964,20.731 27.000,20.731 27.000,20.731 C27.000,20.731 27.000,20.681 27.000,20.681 C27.712,19.625 28.983,18.116 31.830,18.116 C35.356,18.116 38.000,20.334 38.000,25.101 ZM16.033,11.000 C14.199,11.000 13.000,12.158 13.000,13.681 C13.000,15.170 14.165,16.364 15.962,16.364 C15.962,16.364 15.998,16.364 15.998,16.364 C17.867,16.364 19.029,15.171 19.029,13.681 C18.994,12.158 17.867,11.000 16.033,11.000 ZM13.318,34.000 C13.318,34.000 18.676,34.000 18.676,34.000 C18.676,34.000 18.676,18.481 18.676,18.481 C18.676,18.481 13.318,18.481 13.318,18.481 C13.318,18.481 13.318,34.000 13.318,34.000 Z" id="path-1" class="cls-4" fill-rule="evenodd"/>
  </g>
</svg>
