<svg xmlns="http://www.w3.org/2000/svg" xmlns:xlink="http://www.w3.org/1999/xlink" preserveAspectRatio="xMidYMid" width="22" height="22" viewBox="0 0 22 22">
  <defs>
    <style>

      .cls-2 {
        fill: #edb11f;
      }
    </style>
  </defs>
  <path d="M16.457,12.905 C16.607,12.638 16.743,12.363 16.864,12.079 C17.322,11.006 17.555,9.867 17.555,8.694 C17.555,7.521 17.322,6.383 16.864,5.310 C16.422,4.274 15.789,3.344 14.983,2.546 C14.177,1.748 13.239,1.122 12.193,0.684 C11.110,0.230 9.960,-0.000 8.775,-0.000 C7.591,-0.000 6.441,0.230 5.357,0.684 C4.312,1.122 3.373,1.748 2.567,2.546 C1.762,3.344 1.129,4.274 0.687,5.310 C0.228,6.383 -0.004,7.521 -0.004,8.694 C-0.004,9.867 0.228,11.006 0.687,12.079 C1.129,13.114 1.762,14.044 2.567,14.842 C3.373,15.640 4.312,16.267 5.357,16.704 C6.441,17.158 7.591,17.389 8.775,17.389 C9.960,17.389 11.110,17.158 12.193,16.704 C12.375,16.628 12.553,16.546 12.728,16.459 C12.728,16.459 17.647,21.331 17.647,21.331 C18.083,21.762 18.662,22.000 19.278,22.000 C19.894,22.000 20.474,21.762 20.909,21.331 C20.909,21.331 21.306,20.938 21.306,20.938 C22.205,20.047 22.205,18.598 21.306,17.707 C21.306,17.707 16.457,12.905 16.457,12.905 ZM12.974,14.451 C12.524,14.773 12.035,15.045 11.515,15.259 C10.671,15.604 9.746,15.796 8.775,15.796 C4.815,15.796 1.604,12.616 1.604,8.694 C1.604,4.772 4.815,1.593 8.775,1.593 C12.736,1.593 15.946,4.772 15.946,8.694 C15.946,9.778 15.701,10.804 15.263,11.723 C15.026,12.220 14.732,12.685 14.391,13.111 C13.983,13.619 13.506,14.070 12.974,14.451 Z" id="path-1" class="cls-2" fill-rule="evenodd"/>
</svg>
