<svg xmlns="http://www.w3.org/2000/svg" xmlns:xlink="http://www.w3.org/1999/xlink" preserveAspectRatio="xMidYMid" width="48" height="48" viewBox="0 0 48 48">
  <defs>
    <style>

      .cls-3 {
        fill: #4099ff;
      }

      .cls-4 {
        fill: #ffffff;
      }
    </style>
  </defs>
  <g id="tw-iconsvg">
    <rect id="rect-1" class="cls-3" width="48" height="48"/>
    <path d="M36.274,14.388 C35.243,14.995 34.101,15.436 32.887,15.675 C31.915,14.642 30.531,14.000 28.998,14.000 C26.053,14.000 23.667,16.375 23.667,19.302 C23.667,19.717 23.715,20.122 23.805,20.510 C19.376,20.289 15.449,18.177 12.820,14.969 C12.361,15.751 12.099,16.662 12.099,17.634 C12.099,19.474 13.041,21.098 14.470,22.048 C13.596,22.019 12.775,21.779 12.056,21.382 C12.056,21.382 12.056,21.448 12.056,21.448 C12.056,24.017 13.893,26.159 16.330,26.649 C15.884,26.769 15.413,26.835 14.926,26.835 C14.582,26.835 14.249,26.800 13.923,26.739 C14.601,28.845 16.569,30.378 18.900,30.422 C17.077,31.843 14.778,32.691 12.282,32.691 C11.851,32.691 11.427,32.666 11.010,32.618 C13.369,34.122 16.169,35.000 19.180,35.000 C28.983,35.000 34.344,26.920 34.344,19.912 C34.344,19.912 34.327,19.225 34.327,19.225 C35.371,18.481 36.277,17.547 36.990,16.484 C36.034,16.906 35.008,17.192 33.930,17.320 C35.030,16.663 35.874,15.623 36.274,14.388 Z" id="path-1" class="cls-4" fill-rule="evenodd"/>
  </g>
</svg>
